<svg width="16" height="16" viewBox="0 0 16 16" fill="none" xmlns="http://www.w3.org/2000/svg">
<path opacity="0.4" d="M1.38867 7.89495L2.54836 6.73558C2.85586 6.42808 3.38523 6.63245 3.40117 7.06683C3.42135 7.62781 3.52336 8.18284 3.70398 8.71433C3.73488 8.80323 3.74019 8.89902 3.7193 8.99079C3.69842 9.08256 3.65218 9.16662 3.58586 9.23339L3.1768 9.64246C2.3018 10.5175 2.27367 11.9443 3.14086 12.83C3.34917 13.042 3.59739 13.2107 3.87121 13.3264C4.14504 13.442 4.43905 13.5023 4.73629 13.5038C5.03353 13.5053 5.32813 13.4479 5.6031 13.335C5.87806 13.2221 6.12795 13.0559 6.33836 12.8459L8.43711 10.745C8.85875 10.323 9.0956 9.75097 9.0956 9.15449C9.0956 8.558 8.85875 7.98593 8.43711 7.56402C8.33755 7.46534 8.22942 7.37572 8.11398 7.2962C8.04955 7.25209 7.99634 7.1935 7.95863 7.12512C7.92091 7.05675 7.89974 6.98049 7.8968 6.90246C7.89009 6.73014 7.91924 6.55832 7.98239 6.39785C8.04554 6.23739 8.14132 6.09179 8.26367 5.97027L8.9218 5.31402C9.00548 5.23077 9.11584 5.17968 9.23346 5.16974C9.35108 5.15979 9.46844 5.19163 9.56492 5.25964C10.1329 5.65622 10.6073 6.17219 10.9549 6.7714C11.3024 7.37062 11.5148 8.03858 11.577 8.72851C11.6393 9.41843 11.5499 10.1136 11.3152 10.7654C11.0805 11.4171 10.7062 12.0097 10.2184 12.5015L10.2071 12.5131L8.10711 14.6131C6.25492 16.4653 3.24148 16.465 1.38836 14.6131C-0.464766 12.7612 -0.463516 9.74683 1.38867 7.89495Z" fill="#202325"/>
<path d="M12.8227 6.35965C13.6977 5.48465 13.7258 4.05777 12.8586 3.17215C12.6503 2.96014 12.402 2.79147 12.1282 2.67587C11.8544 2.56027 11.5603 2.50002 11.2631 2.49859C10.9658 2.49717 10.6713 2.5546 10.3963 2.66758C10.1214 2.78055 9.87152 2.94683 9.66115 3.15684L7.56241 5.25715C7.14077 5.67906 6.90392 6.25114 6.90392 6.84762C6.90392 7.4441 7.14077 8.01617 7.56241 8.43809C7.66196 8.53676 7.7701 8.62638 7.88553 8.7059C7.94991 8.75005 8.00305 8.80865 8.04071 8.87703C8.07837 8.9454 8.0995 9.02164 8.10241 9.09965C8.10925 9.27195 8.08019 9.44379 8.01709 9.60426C7.95399 9.76474 7.85821 9.91034 7.73585 10.0318L7.07772 10.6896C6.994 10.7728 6.88366 10.8239 6.76605 10.8338C6.64845 10.8438 6.5311 10.812 6.4346 10.744C5.86637 10.3475 5.39175 9.83142 5.044 9.23207C4.69626 8.63271 4.48382 7.96456 4.42156 7.27443C4.3593 6.5843 4.44874 5.88891 4.68361 5.237C4.91847 4.58509 5.29308 3.99244 5.78116 3.50059L5.79241 3.48902L7.89241 1.38902C9.74459 -0.463164 12.758 -0.462852 14.6111 1.38902C16.4643 3.2409 16.4633 6.25465 14.6111 8.10777L13.4515 9.26715C13.144 9.57465 12.6146 9.37027 12.5986 8.9359C12.5785 8.37492 12.4765 7.81989 12.2958 7.2884C12.2649 7.1995 12.2596 7.10371 12.2805 7.01194C12.3014 6.92017 12.3476 6.83611 12.414 6.76934L12.8227 6.35965Z" fill="#202325"/>
</svg>
