<svg width="19" height="16" viewBox="0 0 19 16" fill="none" xmlns="http://www.w3.org/2000/svg">
<path opacity="0.4" d="M18.3688 13.0385H7.7029C7.54575 13.0385 7.39503 13.101 7.28391 13.2121C7.17278 13.3232 7.11035 13.4739 7.11035 13.6311V14.8162C7.11035 14.9734 7.17278 15.1241 7.28391 15.2352C7.39503 15.3463 7.54575 15.4088 7.7029 15.4088H18.3688C18.526 15.4088 18.6767 15.3463 18.7878 15.2352C18.899 15.1241 18.9614 14.9734 18.9614 14.8162V13.6311C18.9614 13.4739 18.899 13.3232 18.7878 13.2121C18.6767 13.101 18.526 13.0385 18.3688 13.0385ZM18.3688 1.1875H7.7029C7.54575 1.1875 7.39503 1.24993 7.28391 1.36105C7.17278 1.47218 7.11035 1.6229 7.11035 1.78005V2.96516C7.11035 3.12231 7.17278 3.27303 7.28391 3.38415C7.39503 3.49528 7.54575 3.55771 7.7029 3.55771H18.3688C18.526 3.55771 18.6767 3.49528 18.7878 3.38415C18.899 3.27303 18.9614 3.12231 18.9614 2.96516V1.78005C18.9614 1.6229 18.899 1.47218 18.7878 1.36105C18.6767 1.24993 18.526 1.1875 18.3688 1.1875ZM18.3688 7.11302H7.7029C7.54575 7.11302 7.39503 7.17545 7.28391 7.28658C7.17278 7.3977 7.11035 7.54842 7.11035 7.70557V8.89068C7.11035 9.04783 7.17278 9.19855 7.28391 9.30968C7.39503 9.4208 7.54575 9.48323 7.7029 9.48323H18.3688C18.526 9.48323 18.6767 9.4208 18.7878 9.30968C18.899 9.19855 18.9614 9.04783 18.9614 8.89068V7.70557C18.9614 7.54842 18.899 7.3977 18.7878 7.28658C18.6767 7.17545 18.526 7.11302 18.3688 7.11302Z" fill="#202325"/>
<path d="M5.17037 0.130712C5.12908 0.0892807 5.08002 0.0564073 5.026 0.0339768C4.97198 0.0115463 4.91407 0 4.85558 0C4.79708 0 4.73917 0.0115463 4.68515 0.0339768C4.63113 0.0564073 4.58207 0.0892807 4.54078 0.130712L2.18242 2.47537L1.34174 1.65616C1.30045 1.61473 1.25139 1.58186 1.19737 1.55943C1.14335 1.537 1.08544 1.52545 1.02695 1.52545C0.968456 1.52545 0.91054 1.537 0.856521 1.55943C0.802502 1.58186 0.753441 1.61473 0.712154 1.65616L0.130712 2.23835C0.0892807 2.27963 0.0564073 2.32869 0.0339768 2.38271C0.0115463 2.43673 0 2.49465 0 2.55314C0 2.61163 0.0115463 2.66955 0.0339768 2.72357C0.0564073 2.77759 0.0892807 2.82665 0.130712 2.86793L1.89318 4.62337C1.98116 4.70699 2.0979 4.75362 2.21927 4.75362C2.34065 4.75362 2.45739 4.70699 2.54536 4.62337L3.12273 4.04489L5.79662 1.37137C5.87993 1.28799 5.92701 1.17512 5.92763 1.05726C5.92826 0.939394 5.88238 0.826037 5.79996 0.741781L5.17037 0.130712ZM5.17037 6.02624C5.12908 5.9848 5.08002 5.95193 5.026 5.9295C4.97198 5.90707 4.91407 5.89552 4.85558 5.89552C4.79708 5.89552 4.73917 5.90707 4.68515 5.9295C4.63113 5.95193 4.58207 5.9848 4.54078 6.02624L2.18242 8.38608L1.34174 7.56761C1.30045 7.52618 1.25139 7.49331 1.19737 7.47088C1.14335 7.44845 1.08544 7.4369 1.02695 7.4369C0.968456 7.4369 0.91054 7.44845 0.856521 7.47088C0.802502 7.49331 0.753441 7.52618 0.712154 7.56761L0.130712 8.14868C0.0892807 8.18997 0.0564073 8.23903 0.0339768 8.29305C0.0115463 8.34707 0 8.40499 0 8.46348C0 8.52197 0.0115463 8.57988 0.0339768 8.6339C0.0564073 8.68792 0.0892807 8.73698 0.130712 8.77827L1.88874 10.5374C1.97665 10.621 2.09333 10.6676 2.21464 10.6676C2.33596 10.6676 2.45264 10.621 2.54055 10.5374L3.12199 9.95634L5.79588 7.28171C5.87887 7.19891 5.92579 7.08668 5.92642 6.96945C5.92704 6.85222 5.88132 6.7395 5.79921 6.65582L5.17037 6.02624ZM2.37019 12.4447C1.38914 12.4447 0.570682 13.2409 0.570682 14.2223C0.570682 15.2038 1.38989 16 2.37019 16C2.84165 16 3.29381 15.8127 3.62718 15.4793C3.96056 15.146 4.14785 14.6938 4.14785 14.2223C4.14785 13.7509 3.96056 13.2987 3.62718 12.9654C3.29381 12.632 2.84165 12.4447 2.37019 12.4447Z" fill="#202325"/>
</svg>
