<svg width="20" height="15" viewBox="0 0 20 15" fill="none" xmlns="http://www.w3.org/2000/svg">
<path opacity="0.4" d="M17.0497 11.0153C17.4038 10.4608 17.9065 10.0169 18.5006 9.7341V3.56035C17.7948 3.22437 17.2212 2.66253 16.8706 1.96379C16.5067 1.91902 16.1404 1.8969 15.7738 1.89754C14.0363 1.89754 12.2547 2.34847 10.3675 2.82566C8.38656 3.32566 6.33781 3.84566 4.22656 3.84566C3.80038 3.84618 3.37446 3.82407 2.95063 3.77941C2.59659 4.33389 2.09397 4.77782 1.5 5.06066V11.2347C2.20572 11.5708 2.7792 12.1326 3.12969 12.8313C3.49359 12.876 3.85992 12.8982 4.22656 12.8975C5.96406 12.8975 7.74594 12.4466 9.63281 11.9691C11.6141 11.4675 13.6641 10.9491 15.7744 10.9491C16.2004 10.9486 16.6261 10.9707 17.0497 11.0153ZM10.0003 10.3975C8.61938 10.3975 7.50031 9.05378 7.50031 7.39753C7.50031 5.74129 8.61969 4.39754 10.0003 4.39754C11.3809 4.39754 12.5003 5.74129 12.5003 7.39753C12.5003 9.05378 11.3806 10.3975 10.0003 10.3975Z" fill="#202325"/>
<path d="M19.4112 1.0994C18.1991 0.590959 16.9859 0.397522 15.7734 0.397522C11.9237 0.397522 8.07531 2.34565 4.22656 2.34565C3.26125 2.34565 2.29656 2.22315 1.33125 1.9169C1.22668 1.88351 1.11759 1.86643 1.00781 1.86627C0.46875 1.86627 0 2.28252 0 2.86033V12.7747C0 13.1694 0.225938 13.5435 0.58875 13.6953C1.80094 14.2041 3.01406 14.3975 4.22656 14.3975C8.07562 14.3975 11.9247 12.4491 15.7738 12.4491C16.7391 12.4491 17.7037 12.5716 18.6691 12.8778C18.7736 12.9113 18.8827 12.9285 18.9925 12.9288C19.5313 12.9288 20 12.5122 20 11.9344V2.02033C20 1.62533 19.7741 1.25158 19.4112 1.0994V1.0994ZM9.63219 11.9691C7.74594 12.4466 5.96406 12.8975 4.22656 12.8975C3.85992 12.8982 3.49359 12.876 3.12969 12.8313C2.7792 12.1326 2.20572 11.5708 1.5 11.2347V5.06033C2.09397 4.7775 2.59659 4.33357 2.95062 3.77908C3.37446 3.82374 3.80038 3.84586 4.22656 3.84533C6.33781 3.84533 8.38656 3.3269 10.3675 2.82533C12.2534 2.34846 14.035 1.89752 15.7725 1.89752C16.1391 1.89688 16.5055 1.91901 16.8694 1.96377C17.2201 2.66262 17.7939 3.22447 18.5 3.56033V9.73471C17.9059 10.0175 17.4032 10.4614 17.0491 11.016C16.6253 10.9713 16.1995 10.9492 15.7734 10.9497C13.6622 10.9491 11.6134 11.4675 9.63219 11.9691Z" fill="#202325"/>
</svg>
