<svg width="20" height="16" viewBox="0 0 20 16" fill="none" xmlns="http://www.w3.org/2000/svg">
<path opacity="0.4" d="M16.417 6.16602H16.1191C15.9954 5.75114 15.8293 5.35009 15.6235 4.96919L15.8338 4.75893C15.9189 4.67381 15.9864 4.57275 16.0325 4.46152C16.0786 4.35029 16.1023 4.23107 16.1023 4.11068C16.1023 3.99028 16.0786 3.87107 16.0325 3.75984C15.9864 3.64861 15.9189 3.54755 15.8338 3.46242L14.5373 2.16591C14.4521 2.08077 14.3511 2.01323 14.2398 1.96715C14.1286 1.92107 14.0094 1.89735 13.889 1.89735C13.7686 1.89735 13.6494 1.92107 13.5382 1.96715C13.4269 2.01323 13.3259 2.08077 13.2407 2.16591L13.0311 2.37617C12.6499 2.17057 12.2487 2.00451 11.8337 1.8806V1.58268C11.8337 1.33957 11.7371 1.10641 11.5652 0.9345C11.3933 0.762592 11.1601 0.666016 10.917 0.666016H9.08366C8.84054 0.666016 8.60739 0.762592 8.43548 0.9345C8.26357 1.10641 8.16699 1.33957 8.16699 1.58268V1.8806C7.75215 2.00442 7.35111 2.17048 6.97017 2.37617L6.76048 2.16591C6.67536 2.08077 6.5743 2.01323 6.46307 1.96715C6.35184 1.92107 6.23262 1.89735 6.11223 1.89735C5.99183 1.89735 5.87261 1.92107 5.76139 1.96715C5.65016 2.01323 5.54909 2.08077 5.46397 2.16591L4.16746 3.46242C4.08232 3.54755 4.01478 3.64861 3.9687 3.75984C3.92262 3.87107 3.8989 3.99028 3.8989 4.11068C3.8989 4.23107 3.92262 4.35029 3.9687 4.46152C4.01478 4.57275 4.08232 4.67381 4.16746 4.75893L4.37772 4.96919C4.17163 5.35008 4.00518 5.75113 3.881 6.16602H3.58366C3.34054 6.16602 3.10739 6.26259 2.93548 6.4345C2.76357 6.60641 2.66699 6.83957 2.66699 7.08268V8.91602C2.66699 9.15913 2.76357 9.39229 2.93548 9.5642C3.10739 9.73611 3.34054 9.83268 3.58366 9.83268H3.88158C4.00529 10.2476 4.17136 10.6486 4.37715 11.0295L4.16689 11.2398C4.08175 11.3249 4.01421 11.426 3.96813 11.5372C3.92205 11.6484 3.89833 11.7676 3.89833 11.888C3.89833 12.0084 3.92205 12.1276 3.96813 12.2389C4.01421 12.3501 4.08175 12.4512 4.16689 12.5363L5.4634 13.8328C5.54852 13.9179 5.64958 13.9855 5.76081 14.0315C5.87204 14.0776 5.99126 14.1013 6.11165 14.1013C6.23205 14.1013 6.35127 14.0776 6.4625 14.0315C6.57372 13.9855 6.67479 13.9179 6.75991 13.8328L6.9696 13.6225C7.3508 13.8281 7.75202 13.9941 8.16699 14.1181V14.416C8.16699 14.6591 8.26357 14.8923 8.43548 15.0642C8.60739 15.2361 8.84054 15.3327 9.08366 15.3327H10.917C11.1601 15.3327 11.3933 15.2361 11.5652 15.0642C11.7371 14.8923 11.8337 14.6591 11.8337 14.416V14.1181C12.2487 13.9943 12.6499 13.8282 13.0311 13.6225L13.2413 13.8328C13.3264 13.9179 13.4275 13.9855 13.5387 14.0315C13.65 14.0776 13.7692 14.1013 13.8896 14.1013C14.01 14.1013 14.1292 14.0776 14.2404 14.0315C14.3516 13.9855 14.4527 13.9179 14.5378 13.8328L15.8343 12.5363C15.9195 12.4512 15.987 12.3501 16.0331 12.2389C16.0792 12.1276 16.1029 12.0084 16.1029 11.888C16.1029 11.7676 16.0792 11.6484 16.0331 11.5372C15.987 11.426 15.9195 11.3249 15.8343 11.2398L15.6241 11.0295C15.8296 10.6485 15.9954 10.2475 16.1191 9.83268H16.417C16.6601 9.83268 16.8933 9.73611 17.0652 9.5642C17.2371 9.39229 17.3337 9.15913 17.3337 8.91602V7.08268C17.3337 6.83957 17.2371 6.60641 17.0652 6.4345C16.8933 6.26259 16.6601 6.16602 16.417 6.16602ZM10.0003 11.666C9.27513 11.666 8.56622 11.451 7.96324 11.0481C7.36025 10.6452 6.89029 10.0725 6.61277 9.40252C6.33525 8.73253 6.26263 7.99528 6.40411 7.28402C6.54559 6.57275 6.89481 5.91942 7.4076 5.40663C7.92039 4.89383 8.57373 4.54462 9.28499 4.40314C9.99626 4.26166 10.7335 4.33427 11.4035 4.61179C12.0735 4.88931 12.6461 5.35928 13.049 5.96226C13.4519 6.56524 13.667 7.27415 13.667 7.99935C13.667 8.97181 13.2807 9.90444 12.5931 10.5921C11.9054 11.2797 10.9728 11.666 10.0003 11.666Z" fill="#202325"/>
<ellipse cx="9.99967" cy="8.00065" rx="2.66667" ry="2.66667" fill="#202325"/>
</svg>
